<svg xmlns="http://www.w3.org/2000/svg" viewBox="0 0 833.171 1000"><path d="M768.47 199.985c14.395 14.369 26.399 30.112 36.013 47.177 9.613 17.091 16.836 34.868 21.567 53.307a225.938 225.938 0 0 1 7.121 56.333c0 19.125-2.391 37.844-7.121 56.155s-11.953 35.987-21.567 53.078-21.618 32.833-36.013 47.203L416.585 864.716 64.7 513.238c-14.395-14.369-26.399-30.112-36.012-47.203s-16.836-34.766-21.567-53.078C2.391 394.646 0 375.927 0 356.802c0-19.1 2.391-37.895 7.121-56.333s11.953-36.216 21.567-53.307c9.614-17.065 21.618-32.808 36.012-47.177 21.16-20.88 45.117-36.877 71.974-48.017 26.857-11.114 55.087-16.684 84.64-16.684s57.783 5.57 84.64 16.684c26.806 11.139 50.814 27.137 71.974 48.017l38.658 39.039 38.657-39.039c21.16-20.88 45.168-36.877 71.974-48.017 26.857-11.114 55.087-16.684 84.64-16.684 29.553 0 57.783 5.57 84.64 16.684 26.856 11.14 50.813 27.137 71.973 48.017z"/></svg>