<?xml version="1.0" encoding="iso-8859-1"?>
<!-- Generator: Adobe Illustrator 21.0.2, SVG Export Plug-In . SVG Version: 6.00 Build 0)  -->
<svg version="1.1" id="Layer_1" xmlns="http://www.w3.org/2000/svg" xmlns:xlink="http://www.w3.org/1999/xlink" x="0px" y="0px"
	 viewBox="0 0 812.334 1000" style="enable-background:new 0 0 812.334 1000;" xml:space="preserve">
<title>uE01E-heart-outline</title>
<path d="M805.042,306.208c-5.035-19.413-12.585-38.085-22.458-55.542c-10.194-18.051-22.811-34.622-37.5-49.25l0,0
	c-90.168-89.885-236.094-89.773-326.125,0.25l-12.792,12.667l-12.875-13c-90.061-89.889-235.897-89.889-325.958,0
	c-14.689,14.644-27.305,31.228-37.5,49.292c-9.87,17.458-17.42,36.13-22.458,55.542C2.491,325.227,0.013,344.824,0,364.5
	c0.002,19.679,2.494,39.279,7.417,58.333c5.05,19.342,12.599,37.943,22.458,55.333c10.199,18.047,22.816,34.617,37.5,49.25
	l338.792,338.667L745,527.625c14.689-14.644,27.305-31.228,37.5-49.292c9.839-17.38,17.374-35.967,22.417-55.292
	c4.922-19.054,7.414-38.654,7.417-58.333C812.361,344.98,809.912,325.326,805.042,306.208z M744.5,407.417
	c-3.692,14.069-9.196,27.599-16.375,40.25c-7.424,13.093-16.607,25.107-27.292,35.708L406.167,777.75L111.5,483.375
	c-10.665-10.592-19.833-22.592-27.25-35.667c-7.199-12.66-12.718-26.205-16.417-40.292c-7.232-28.112-7.232-57.597,0-85.708
	c3.677-14.114,9.182-27.687,16.375-40.375c7.397-13.04,16.537-25.011,27.167-35.583c15.686-15.672,34.304-28.102,54.792-36.583
	c41.145-16.861,87.271-16.861,128.417,0c20.38,8.496,38.928,20.847,54.625,36.375l56.958,57.542l56.708-57.292
	c15.746-15.619,34.366-28.042,54.833-36.583c62.879-26.002,135.229-11.581,183.333,36.542
	c10.629,10.573,19.768,22.544,27.167,35.583c7.199,12.7,12.704,26.287,16.375,40.417c7.232,28.112,7.232,57.597,0,85.708
	L744.5,407.417z"/>
</svg>
