<?xml version="1.0" encoding="iso-8859-1"?>
<!-- Generator: Adobe Illustrator 21.0.2, SVG Export Plug-In . SVG Version: 6.00 Build 0)  -->
<svg version="1.1" id="Layer_1" xmlns="http://www.w3.org/2000/svg" xmlns:xlink="http://www.w3.org/1999/xlink" x="0px" y="0px"
	 viewBox="0 0 726.675 1000" style="enable-background:new 0 0 726.675 1000;" xml:space="preserve">
<path d="M666.167,382.979l27.5-27.5l-0.292-0.292c41.421-39.223,44.617-104.105,7.25-147.208
	c-43.103-37.367-107.986-34.171-147.208,7.25l-0.292-0.292L361,407.063l-86.792-86.833l-0.417,0.417
	c0.467-29.58-10.974-58.106-31.75-79.167c-23.151-21.868-54.289-33.232-86.083-31.417l-7.083-0.708l0,0
	c-38.413-9.088-75.417-23.343-110-42.375L0,146.521l0.708,43.917C1.169,233.41,5.618,276.246,14,318.396
	c12.436,34.944,31.587,67.117,56.375,94.708c21.06,20.776,49.587,32.217,79.167,31.75l-0.625,0.625l86.792,86.792l-125,125
	L55.125,853.479l196.333-55.792l125-125L524.5,820.729l0.25-0.25c35.071,38.969,94.541,43.588,135.208,10.5
	c33.087-40.667,28.469-100.137-10.5-135.208l0.25-0.25L501.667,547.479l127.792-127.792l21.5,21.5l-90.125,90.125
	c-10.171,10.171-10.171,26.662,0,36.833c10.171,10.171,26.662,10.171,36.833,0l101.208-101.208
	c14.187-13.77,14.578-36.415,0.875-50.667L666.167,382.979z M107.208,376.396c-18.312-21.172-32.831-45.346-42.917-71.458
	c-5.268-23.862-8.488-48.131-9.625-72.542c28.171,13.675,58.112,23.352,88.958,28.75l7.125,0.708
	c38.125,3.833,42.708,4.667,54.458,16.417c24.122,27.109,21.891,68.593-5,92.958C175.886,398.197,134.368,400.503,107.208,376.396z
	 M206.958,429.938c22.295-11.253,40.39-29.363,51.625-51.667l65.583,65.583l-51.542,51.583L206.958,429.938z M609.792,729.646
	C630.958,750.813,637,780.438,623,794.438c-14,14-43.625,7.917-64.792-13.208l-145.042-145.25l51.542-51.542L609.792,729.646z
	 M224.208,751.396l-93.458,26.542l26.583-93.417l368.292-368.292l67,66.75L224.208,751.396z M629.333,346.271l-66.875-67
	l24.25-24.25c18.768-23.555,52.805-28.046,77.042-10.167c17.907,24.244,13.414,58.311-10.167,77.083L629.333,346.271z"/>
</svg>
