<?xml version="1.0" encoding="utf-8"?>
<!-- Generator: Adobe Illustrator 21.0.2, SVG Export Plug-In . SVG Version: 6.00 Build 0)  -->
<svg version="1.1" id="Layer_1" xmlns="http://www.w3.org/2000/svg" xmlns:xlink="http://www.w3.org/1999/xlink" x="0px" y="0px"
	 viewBox="0 0 908.8 1000" style="enable-background:new 0 0 908.8 1000;" xml:space="preserve">
<title>uE024-iteration</title>
<path d="M908.8,770.8L782.5,897.1l-44.2-44.2l50.8-50.8H620.6c26-17.7,49.6-38.7,70.2-62.5h98.3l-50.8-50.8l44.2-44.2L908.8,770.8z
	 M255.9,677.1c-97.9-88.4-105.6-239.4-17.3-337.3c20.1-22.3,44.2-40.5,71-53.9l-45.8-45.8c-143.4,83.8-191.8,268-108,411.4
	c5.1,8.8,10.7,17.3,16.7,25.5H255.9z M718.8,500c-0.2-150.8-111.6-278.4-261-299l53.9-54l-44.2-44.2L341.2,229.2l126.2,126.2
	l44.2-44.2l-45.8-45.8c129.6,26.9,212.8,153.7,185.9,283.3C628.6,660,530.4,739.8,416.7,739.6H0v62.5h416.7
	C583.4,801.9,718.6,666.8,718.8,500z"/>
</svg>
