<?xml version="1.0" encoding="iso-8859-1"?>
<!-- Generator: Adobe Illustrator 21.0.2, SVG Export Plug-In . SVG Version: 6.00 Build 0)  -->
<svg version="1.1" id="Layer_1" xmlns="http://www.w3.org/2000/svg" xmlns:xlink="http://www.w3.org/1999/xlink" x="0px" y="0px"
	 viewBox="0 0 599.434 1000" style="enable-background:new 0 0 599.434 1000;" xml:space="preserve">
<path d="M587.883,908.958c-13.341,21.067-36.564,33.811-61.5,33.75h-453.5c-40.271-0.019-72.901-32.681-72.882-72.952
	c0.005-10.642,2.34-21.154,6.84-30.798l2.458-4.167l182-269.167v-143.75h-16.667c-17.259,0-31.25-13.991-31.25-31.25
	s13.991-31.25,31.25-31.25h79.167V584.75L62.841,867c-1.519,5.573,1.767,11.322,7.34,12.84c0.881,0.24,1.789,0.364,2.701,0.368
	h453.5c5.776-0.027,10.436-4.731,10.41-10.507c-0.004-0.913-0.128-1.821-0.368-2.701L345.466,584.75V359.375h79.167
	c17.259,0,31.25,13.991,31.25,31.25s-13.991,31.25-31.25,31.25h-16.667v143.75L592.633,839
	C603.165,861.588,601.372,888.001,587.883,908.958z M174.633,265.625c0,23.012,18.655,41.667,41.667,41.667
	s41.667-18.655,41.667-41.667s-18.655-41.667-41.667-41.667S174.633,242.613,174.633,265.625z M341.299,223.958
	c23.012,0,41.667-18.655,41.667-41.667s-18.655-41.667-41.667-41.667s-41.667,18.655-41.667,41.667S318.287,223.958,341.299,223.958
	z M153.799,182.292c34.518,0,62.5-27.982,62.5-62.5s-27.982-62.5-62.5-62.5s-62.5,27.982-62.5,62.5S119.281,182.292,153.799,182.292
	z M154.466,806.042c-6.443,9.533-3.939,22.484,5.594,28.927c3.442,2.327,7.502,3.571,11.656,3.573h255.833
	c11.506-0.006,20.829-9.338,20.823-20.844c-0.002-4.155-1.246-8.214-3.573-11.656l-62.5-92.5H217.091L154.466,806.042z"/>
</svg>
