<?xml version="1.0" encoding="utf-8"?>
<!-- Generator: Adobe Illustrator 21.0.2, SVG Export Plug-In . SVG Version: 6.00 Build 0)  -->
<svg version="1.1" id="Layer_1" xmlns="http://www.w3.org/2000/svg" xmlns:xlink="http://www.w3.org/1999/xlink" x="0px" y="0px"
	 viewBox="0 0 802.1 1000" style="enable-background:new 0 0 802.1 1000;" xml:space="preserve">
<title>uE023-analyze</title>
<path d="M468.7,88.5c-183.8-0.4-333.1,148.2-333.5,332c-0.2,83.1,30.7,163.3,86.6,224.7L9.2,858.1c-12.2,12.2-12.2,32,0,44.2
	s32,12.2,44.2,0l214.8-214.8c146.8,110.9,355.7,81.7,466.6-65.1c110.9-146.8,81.7-355.7-65.1-466.6
	C611.8,112.1,541.3,88.5,468.7,88.5z M739.6,421.9c0,8.8-0.5,17.5-1.3,26h-73.7l-92-276.1C673.6,213.8,739.4,312.4,739.6,421.9z
	 M468.7,151c30.9,0.1,61.5,5.5,90.6,15.9L394.4,537.8l-65.8-131.5H198.7C207,263.1,325.4,151.2,468.7,151z M468.7,692.7
	C333.4,692.5,219,592.4,200.7,458.3h95.8l100.8,201.6L559,295.8l68,204.2H728C693.4,614.3,588.2,692.5,468.7,692.7z"/>
</svg>
