<?xml version="1.0" encoding="utf-8"?>
<!-- Generator: Adobe Illustrator 21.0.2, SVG Export Plug-In . SVG Version: 6.00 Build 0)  -->
<svg version="1.1" id="Layer_1" xmlns="http://www.w3.org/2000/svg" xmlns:xlink="http://www.w3.org/1999/xlink" x="0px" y="0px"
	 viewBox="0 0 854.4 1000" style="enable-background:new 0 0 854.4 1000;" xml:space="preserve">
<path d="M854.4,365c0.1-17.9-7-35-19.7-47.6L665.1,147.8c-26.3-26.3-68.8-26.3-95.1,0c0,0,0,0,0,0l-39.9,39.9
	c-4.9,4.9-9,10.5-12.1,16.7l-178.3-31.9c-89.7-17.9-176.9,40.2-194.9,129.9l-8.6,42.7c-9.8,53,25.2,104,78.2,113.8
	c51.8,9.6,101.9-23.7,113.2-75.2l3.4-17l70.6,6.2l255.3,255.3c4,3.9,4,10.4,0,14.3c-1.9,1.9-4.5,3-7.2,3c-2.7,0-5.3-1-7.2-3
	l-106-106c-11.5-11.5-30.2-11.5-41.7,0s-11.5,30.2,0,41.7l0,0l106.1,106.1c3.9,4,3.9,10.3,0,14.3c-4,3.9-10.4,3.9-14.3,0l-106-106
	c-11.5-11.5-30.2-11.5-41.7,0s-11.5,30.2,0,41.7l106,106c4,3.9,4,10.3,0.1,14.3c-1.9,1.9-4.5,3-7.3,3c-2.7,0-5.3-1.1-7.2-3l-106-106
	c-11.5-11.5-30.2-11.5-41.7,0s-11.5,30.2,0,41.7l106,106c4,4,4,10.4,0,14.3c-4,4-10.4,4-14.3,0L50.3,385.2
	c-11.5-11.5-30.2-11.5-41.7,0s-11.5,30.2,0,41.7l96.4,95.9l-22.4,22.4c-24.1,24.2-24.1,63.3,0,87.5l9.7,9.7
	c8.1,8.2,18.4,14,29.6,16.7c2.7,11.2,8.5,21.5,16.7,29.6l9.7,9.7c8.1,8.2,18.4,14,29.6,16.7c2.7,11.2,8.5,21.5,16.7,29.6l9.7,9.7
	c8.1,8.2,18.4,14,29.6,16.7c2.7,11.2,8.5,21.5,16.7,29.6l9.7,9.7c24.2,24.1,63.3,24.1,87.5,0l22.4-22.4l63.9,63.8
	c26.8,26.9,70.3,26.9,97.2,0.1c10-10,16.7-22.9,19.2-36.9c28.6-4.9,50.9-27.3,55.8-55.8c28.6-4.9,50.9-27.3,55.8-55.8
	c37.4-6.5,62.4-42.1,55.9-79.6c-2.4-13.9-9.1-26.8-19.1-36.8l-19.3-19.2l155.3-155.3C847.4,399.9,854.5,382.8,854.4,365z
	 M310.5,773.1c-1.8,1.9-4.3,3-7,3c-2.6,0.1-5-0.9-6.8-2.8l-9.9-9.9c-1.3-1.3-2.3-3-2.7-4.9l-7.4-31.3l-31.3-7.4
	c-1.8-0.4-3.4-1.4-4.8-2.7l-9.7-9.7c-1.3-1.3-2.2-3-2.6-4.8l-7.4-31.3l-31.3-7.4c-1.8-0.4-3.4-1.3-4.7-2.6l-9.7-9.7
	c-1.3-1.3-2.2-2.9-2.6-4.6l-7.4-31.5l-31.6-7.3c-1.7-0.4-3.3-1.3-4.6-2.6l-9.8-9.8c-3.8-3.8-3.8-10,0-13.8l27-27l191.1,191
	L310.5,773.1z M638,526.3L435.5,323.8c-4.9-4.8-11.4-7.8-18.3-8.3l-109.9-9.7c-13.9,0-25.9,9.9-28.7,23.5l-8.6,42.5
	c-3.7,18.1-19.6,31.2-38.1,31.3c-21.5,0-39-17.4-39-38.9c0-2.6,0.3-5.2,0.8-7.7l8.6-42.7c10.2-49.9,54.1-85.8,105.1-86
	c7.3,0,14.7,0.8,21.8,2.3l180.6,32.3l196,195.8L638,526.3z M793.3,371.1l-45.8,45.8L571.7,241.3c-3.3-3.4-3.3-8.8,0-12.2l39.9-39.9
	c1.6-1.6,3.8-2.6,6.1-2.5c2.3,0,4.5,0.9,6.1,2.5l169.6,169.6C796.7,362.3,796.7,367.7,793.3,371.1L793.3,371.1z"/>
</svg>
